<mxfile host="app.diagrams.net" agent="Mozilla/5.0 (Windows NT 10.0; Win64; x64) AppleWebKit/537.36 (KHTML, like Gecko) Chrome/125.0.0.0 Safari/537.36" version="26.0.3">
  <diagram name="Page-1" id="0O_AbNX909OJUUXxuVlv">
    <mxGraphModel dx="1434" dy="746" grid="1" gridSize="10" guides="1" tooltips="1" connect="1" arrows="1" fold="1" page="1" pageScale="1" pageWidth="827" pageHeight="1169" math="0" shadow="0">
      <root>
        <mxCell id="0" />
        <mxCell id="1" parent="0" />
        <mxCell id="qCS-0DHchp6lJ-krcQRj-3" value="" style="edgeStyle=orthogonalEdgeStyle;rounded=0;orthogonalLoop=1;jettySize=auto;html=1;" edge="1" parent="1" source="qCS-0DHchp6lJ-krcQRj-1">
          <mxGeometry relative="1" as="geometry">
            <mxPoint x="240" y="140" as="targetPoint" />
          </mxGeometry>
        </mxCell>
        <mxCell id="qCS-0DHchp6lJ-krcQRj-1" value="" style="ellipse;whiteSpace=wrap;html=1;aspect=fixed;fillColor=#fff2cc;strokeColor=#d6b656;" vertex="1" parent="1">
          <mxGeometry x="160" y="120" width="40" height="40" as="geometry" />
        </mxCell>
        <mxCell id="qCS-0DHchp6lJ-krcQRj-2" value="" style="ellipse;whiteSpace=wrap;html=1;aspect=fixed;fillColor=#fff2cc;strokeColor=#d6b656;" vertex="1" parent="1">
          <mxGeometry x="280" y="120" width="40" height="40" as="geometry" />
        </mxCell>
        <mxCell id="qCS-0DHchp6lJ-krcQRj-4" value="" style="endArrow=none;html=1;rounded=0;strokeWidth=2;" edge="1" parent="1">
          <mxGeometry width="50" height="50" relative="1" as="geometry">
            <mxPoint x="240" y="160" as="sourcePoint" />
            <mxPoint x="240" y="120" as="targetPoint" />
          </mxGeometry>
        </mxCell>
        <mxCell id="qCS-0DHchp6lJ-krcQRj-5" value="&lt;font style=&quot;font-size: 14px;&quot;&gt;Interruption&lt;/font&gt;" style="text;html=1;align=center;verticalAlign=middle;whiteSpace=wrap;rounded=0;fontStyle=1" vertex="1" parent="1">
          <mxGeometry x="160" y="90" width="160" height="30" as="geometry" />
        </mxCell>
        <mxCell id="qCS-0DHchp6lJ-krcQRj-6" value="" style="edgeStyle=orthogonalEdgeStyle;rounded=0;orthogonalLoop=1;jettySize=auto;html=1;entryX=0.5;entryY=0;entryDx=0;entryDy=0;curved=1;" edge="1" parent="1" source="qCS-0DHchp6lJ-krcQRj-7" target="qCS-0DHchp6lJ-krcQRj-11">
          <mxGeometry relative="1" as="geometry">
            <mxPoint x="240" y="230" as="targetPoint" />
          </mxGeometry>
        </mxCell>
        <mxCell id="qCS-0DHchp6lJ-krcQRj-7" value="" style="ellipse;whiteSpace=wrap;html=1;aspect=fixed;fillColor=#fff2cc;strokeColor=#d6b656;" vertex="1" parent="1">
          <mxGeometry x="160" y="210" width="40" height="40" as="geometry" />
        </mxCell>
        <mxCell id="qCS-0DHchp6lJ-krcQRj-8" value="" style="ellipse;whiteSpace=wrap;html=1;aspect=fixed;fillColor=#fff2cc;strokeColor=#d6b656;" vertex="1" parent="1">
          <mxGeometry x="280" y="210" width="40" height="40" as="geometry" />
        </mxCell>
        <mxCell id="qCS-0DHchp6lJ-krcQRj-10" value="&lt;font style=&quot;font-size: 14px;&quot;&gt;Interception&lt;/font&gt;" style="text;html=1;align=center;verticalAlign=middle;whiteSpace=wrap;rounded=0;fontStyle=1" vertex="1" parent="1">
          <mxGeometry x="160" y="180" width="160" height="30" as="geometry" />
        </mxCell>
        <mxCell id="qCS-0DHchp6lJ-krcQRj-11" value="" style="ellipse;whiteSpace=wrap;html=1;aspect=fixed;fillColor=#f8cecc;strokeColor=#b85450;" vertex="1" parent="1">
          <mxGeometry x="220" y="270" width="40" height="40" as="geometry" />
        </mxCell>
        <mxCell id="qCS-0DHchp6lJ-krcQRj-13" value="" style="rounded=0;orthogonalLoop=1;jettySize=auto;html=1;entryX=1;entryY=0.5;entryDx=0;entryDy=0;startArrow=classic;startFill=1;endArrow=none;endFill=0;" edge="1" parent="1" target="qCS-0DHchp6lJ-krcQRj-7">
          <mxGeometry relative="1" as="geometry">
            <mxPoint x="240.5" y="270.5" as="targetPoint" />
            <mxPoint x="280.5" y="230.5" as="sourcePoint" />
          </mxGeometry>
        </mxCell>
        <mxCell id="qCS-0DHchp6lJ-krcQRj-14" value="" style="edgeStyle=orthogonalEdgeStyle;rounded=0;orthogonalLoop=1;jettySize=auto;html=1;entryX=0.5;entryY=0;entryDx=0;entryDy=0;curved=1;" edge="1" parent="1" source="qCS-0DHchp6lJ-krcQRj-15" target="qCS-0DHchp6lJ-krcQRj-18">
          <mxGeometry relative="1" as="geometry">
            <mxPoint x="240" y="380" as="targetPoint" />
          </mxGeometry>
        </mxCell>
        <mxCell id="qCS-0DHchp6lJ-krcQRj-15" value="" style="ellipse;whiteSpace=wrap;html=1;aspect=fixed;fillColor=#fff2cc;strokeColor=#d6b656;" vertex="1" parent="1">
          <mxGeometry x="160" y="360" width="40" height="40" as="geometry" />
        </mxCell>
        <mxCell id="qCS-0DHchp6lJ-krcQRj-16" value="" style="ellipse;whiteSpace=wrap;html=1;aspect=fixed;fillColor=#fff2cc;strokeColor=#d6b656;" vertex="1" parent="1">
          <mxGeometry x="280" y="360" width="40" height="40" as="geometry" />
        </mxCell>
        <mxCell id="qCS-0DHchp6lJ-krcQRj-17" value="&lt;font style=&quot;font-size: 14px;&quot;&gt;Modification&lt;/font&gt;" style="text;html=1;align=center;verticalAlign=middle;whiteSpace=wrap;rounded=0;fontStyle=1" vertex="1" parent="1">
          <mxGeometry x="160" y="330" width="160" height="30" as="geometry" />
        </mxCell>
        <mxCell id="qCS-0DHchp6lJ-krcQRj-18" value="" style="ellipse;whiteSpace=wrap;html=1;aspect=fixed;fillColor=#f8cecc;strokeColor=#b85450;" vertex="1" parent="1">
          <mxGeometry x="220" y="420" width="40" height="40" as="geometry" />
        </mxCell>
        <mxCell id="qCS-0DHchp6lJ-krcQRj-19" value="" style="edgeStyle=orthogonalEdgeStyle;rounded=0;orthogonalLoop=1;jettySize=auto;html=1;entryX=0.5;entryY=0;entryDx=0;entryDy=0;curved=1;startArrow=classic;startFill=1;endArrow=none;endFill=0;" edge="1" parent="1">
          <mxGeometry relative="1" as="geometry">
            <mxPoint x="240.5" y="420.5" as="targetPoint" />
            <mxPoint x="280.5" y="380.5" as="sourcePoint" />
          </mxGeometry>
        </mxCell>
        <mxCell id="qCS-0DHchp6lJ-krcQRj-21" value="" style="ellipse;whiteSpace=wrap;html=1;aspect=fixed;fillColor=#fff2cc;strokeColor=#d6b656;" vertex="1" parent="1">
          <mxGeometry x="160" y="510" width="40" height="40" as="geometry" />
        </mxCell>
        <mxCell id="qCS-0DHchp6lJ-krcQRj-22" value="" style="ellipse;whiteSpace=wrap;html=1;aspect=fixed;fillColor=#fff2cc;strokeColor=#d6b656;" vertex="1" parent="1">
          <mxGeometry x="280" y="510" width="40" height="40" as="geometry" />
        </mxCell>
        <mxCell id="qCS-0DHchp6lJ-krcQRj-23" value="&lt;font style=&quot;font-size: 14px;&quot;&gt;Fabrication&lt;/font&gt;" style="text;html=1;align=center;verticalAlign=middle;whiteSpace=wrap;rounded=0;fontStyle=1" vertex="1" parent="1">
          <mxGeometry x="160" y="480" width="160" height="30" as="geometry" />
        </mxCell>
        <mxCell id="qCS-0DHchp6lJ-krcQRj-24" value="" style="ellipse;whiteSpace=wrap;html=1;aspect=fixed;fillColor=#f8cecc;strokeColor=#b85450;" vertex="1" parent="1">
          <mxGeometry x="220" y="570" width="40" height="40" as="geometry" />
        </mxCell>
        <mxCell id="qCS-0DHchp6lJ-krcQRj-25" value="" style="edgeStyle=orthogonalEdgeStyle;rounded=0;orthogonalLoop=1;jettySize=auto;html=1;entryX=0.5;entryY=0;entryDx=0;entryDy=0;curved=1;startArrow=classic;startFill=1;endArrow=none;endFill=0;" edge="1" parent="1">
          <mxGeometry relative="1" as="geometry">
            <mxPoint x="240.5" y="570.5" as="targetPoint" />
            <mxPoint x="280.5" y="530.5" as="sourcePoint" />
          </mxGeometry>
        </mxCell>
      </root>
    </mxGraphModel>
  </diagram>
</mxfile>
